<svg xmlns="http://www.w3.org/2000/svg" width="600" height="280" viewBox="-5 -4 70 33" fill="none" role="img" aria-labelledby="title">
<title id="title">PDF MV</title>
<style>
.letter { animation: assemble 5.4s cubic-bezier(0.23,1,0.32,1) infinite both; transform-origin: 0 0; }
@keyframes assemble { 0% { opacity:0; transform:translateY(3.7px) rotate(-3deg) scale(.97); } 10%,90% { opacity:1; transform:translateY(0) rotate(0) scale(1); } 100% { opacity:0; transform:translateY(0) rotate(0) scale(1); } }
@media (prefers-reduced-motion:reduce) { .letter { animation:none; } }
</style>
<g class="letter" style="animation-delay:0.0000s"><path d="M4.752 15.9813C4.25333 16.2747 3.81333 16.3113 3.432 16.0913C3.05067 15.8713 2.86 15.468 2.86 14.8813V21.4813L0.946 22.5813V6.30133L7.612 2.45133C8.11067 2.158 8.55067 2.12133 8.932 2.34133C9.328 2.56133 9.526 2.96466 9.526 3.55133V11.0313C9.526 11.4127 9.43067 11.8233 9.24 12.2633C9.064 12.7033 8.82933 13.114 8.536 13.4953C8.25733 13.862 7.94933 14.1407 7.612 14.3313L4.752 15.9813ZM7.612 4.65133L2.86 7.40133V14.8813L7.612 12.1313V4.65133ZM2.86 14.8813C2.86 15.468 3.05067 15.8713 3.432 16.0913L2.486 15.5413C2.10467 15.3213 1.914 14.918 1.914 14.3313L2.86 14.8813ZM7.612 4.65133V12.1313L6.666 11.5813V4.10133L7.612 4.65133ZM7.612 12.1313L2.86 14.8813L1.914 14.3313L6.666 11.5813L7.612 12.1313ZM8.954 2.34133C8.558 2.12133 8.11067 2.158 7.612 2.45133L0.946 6.30133L0 5.75133L6.666 1.90133C7.16467 1.608 7.612 1.57133 8.008 1.79133L8.954 2.34133ZM0.946 6.30133V22.5813L0 22.0313V5.75133L0.946 6.30133Z" fill="#09B400"/></g>
<g class="letter" style="animation-delay:0.0667s"><path d="M18.2065 2.34147C18.7052 2.04813 19.1452 2.01147 19.5265 2.23147C19.9078 2.45147 20.0985 2.8548 20.0985 3.44147V15.3215C20.0985 15.7175 20.0105 16.1355 19.8345 16.5755C19.6585 17.0008 19.4238 17.4041 19.1305 17.7855C18.8518 18.1521 18.5438 18.4308 18.2065 18.6215L15.1485 20.3815C14.6498 20.6748 14.2098 20.7115 13.8285 20.4915C13.4472 20.2715 13.2565 19.8681 13.2565 19.2815L18.2065 16.4215V4.54147L13.2565 7.40147V21.4815L11.3425 22.5815V6.30147L18.2065 2.34147ZM18.2065 4.54147V16.4215L17.2605 15.8715V3.99147L18.2065 4.54147ZM18.2065 16.4215L13.2565 19.2815L12.3105 18.7315L17.2605 15.8715L18.2065 16.4215ZM13.2565 19.2815C13.2565 19.8681 13.4472 20.2715 13.8285 20.4915L12.8825 19.9415C12.5012 19.7215 12.3105 19.3181 12.3105 18.7315L13.2565 19.2815ZM19.5265 2.23147C19.1452 2.01147 18.7052 2.04813 18.2065 2.34147L11.3425 6.30147L10.3965 5.75147L17.2605 1.79147C17.7592 1.49813 18.1992 1.46147 18.5805 1.68147L19.5265 2.23147ZM11.3425 6.30147V22.5815L10.3965 22.0315V5.75147L11.3425 6.30147Z" fill="#09B400"/></g>
<g class="letter" style="animation-delay:0.1333s"><path d="M21.9323 9.38164C21.9323 8.98564 22.0203 8.57498 22.1963 8.14964C22.3723 7.70964 22.607 7.30631 22.9003 6.93964C23.1937 6.55831 23.509 6.27231 23.8463 6.08164L30.5123 2.23164V4.43164L23.8463 8.28164V15.9816C23.8463 15.5856 23.9343 15.175 24.1103 14.7496C24.2863 14.3096 24.5137 13.9063 24.7923 13.5396C25.0857 13.1583 25.401 12.8723 25.7383 12.6816L30.5123 9.93164V12.1316L23.8463 15.9816V21.4816L21.9323 22.5816V9.38164ZM30.5123 9.93164L25.7383 12.6816C25.401 12.8723 25.0857 13.1583 24.7923 13.5396C24.5137 13.9063 24.2863 14.3096 24.1103 14.7496C23.9343 15.175 23.8463 15.5856 23.8463 15.9816L22.9003 15.4316C22.9003 15.0356 22.9883 14.625 23.1643 14.1996C23.3403 13.7596 23.5677 13.3563 23.8463 12.9896C24.1397 12.6083 24.455 12.3223 24.7923 12.1316L29.5663 9.38164L30.5123 9.93164ZM30.5123 2.23164L23.8463 6.08164C23.509 6.27231 23.1937 6.55831 22.9003 6.93964C22.607 7.30631 22.3723 7.70964 22.1963 8.14964C22.0203 8.57498 21.9323 8.98564 21.9323 9.38164V22.5816L20.9863 22.0316V8.83164C20.9863 8.43564 21.0743 8.02497 21.2503 7.59964C21.4263 7.15964 21.661 6.75631 21.9543 6.38964C22.2477 6.00831 22.563 5.72231 22.9003 5.53164L29.5663 1.68164L30.5123 2.23164Z" fill="#09B400"/></g>
<g class="letter" style="animation-delay:0.2000s"><path d="M32.8469 22.5813C32.4069 22.8306 32.0403 22.8746 31.7469 22.7133C31.4683 22.5519 31.3289 22.2146 31.3289 21.7012C31.3289 21.1879 31.4683 20.6819 31.7469 20.1833C32.0403 19.6846 32.4069 19.3106 32.8469 19.0613C33.2869 18.8119 33.6463 18.7679 33.9249 18.9293C34.2183 19.0906 34.3649 19.4279 34.3649 19.9412C34.3649 20.4546 34.2183 20.9606 33.9249 21.4593C33.6463 21.9579 33.2869 22.3319 32.8469 22.5813ZM33.9469 18.9293C33.6536 18.7679 33.2869 18.8119 32.8469 19.0613C32.4069 19.3106 32.0403 19.6846 31.7469 20.1833C31.4683 20.6819 31.3289 21.1879 31.3289 21.7012C31.3289 22.2146 31.4683 22.5519 31.7469 22.7133L30.8009 22.1632C30.5223 22.0019 30.3829 21.6646 30.3829 21.1513C30.3829 20.6379 30.5223 20.1319 30.8009 19.6333C31.0943 19.1346 31.4609 18.7606 31.9009 18.5113C32.3409 18.2619 32.7076 18.2179 33.0009 18.3793L33.9469 18.9293Z" fill="#09B400"/></g>
<g class="letter" style="animation-delay:0.2667s"><path d="M39.0965 5.20143L46.7085 0.801428C47.2071 0.508095 47.6471 0.471429 48.0285 0.691429C48.4245 0.911429 48.6224 1.31476 48.6224 1.90143V15.9814L46.7085 17.0814V3.00143L43.8484 4.65143V18.7314L41.9344 19.8314V5.75143L39.0965 7.40143V21.4814L37.1824 22.5814V8.50143C37.1824 8.10543 37.2704 7.69476 37.4464 7.26943C37.6224 6.82943 37.8571 6.4261 38.1504 6.05943C38.4438 5.6781 38.7591 5.39209 39.0965 5.20143ZM46.7085 3.00143V17.0814L45.7625 16.5314V2.45143L46.7085 3.00143ZM41.9344 5.75143V19.8314L40.9884 19.2814V5.20143L41.9344 5.75143ZM48.0285 0.691429C47.6471 0.471429 47.2071 0.508095 46.7085 0.801428L39.0965 5.20143C38.7591 5.39209 38.4438 5.6781 38.1504 6.05943C37.8571 6.4261 37.6224 6.82943 37.4464 7.26943C37.2704 7.69476 37.1824 8.10543 37.1824 8.50143V22.5814L36.2365 22.0314V7.95143C36.2365 7.55543 36.3245 7.14476 36.5005 6.71943C36.6765 6.27943 36.9111 5.8761 37.2044 5.50943C37.4978 5.1281 37.8131 4.8421 38.1504 4.65143L45.7625 0.251429C46.2611 -0.0419048 46.7011 -0.0785717 47.0825 0.141429L48.0285 0.691429Z" fill="#09B400"/></g>
<g class="letter" style="animation-delay:0.3333s"><path d="M54.2424 22.1416C53.7437 22.435 53.3037 22.4716 52.9224 22.2516C52.541 22.0316 52.3504 21.6283 52.3504 21.0416L57.1024 18.2916V3.33164L59.0164 2.23164V14.9916C59.0164 15.373 58.921 15.7836 58.7304 16.2236C58.5544 16.6636 58.3197 17.0743 58.0264 17.4556C57.7477 17.8223 57.4397 18.101 57.1024 18.2916C57.1024 18.673 57.0144 19.0836 56.8384 19.5236C56.6624 19.9636 56.4277 20.3743 56.1344 20.7556C55.841 21.1223 55.5257 21.401 55.1884 21.5916L54.2424 22.1416ZM52.3504 21.0416C51.837 21.335 51.3897 21.3716 51.0084 21.1516C50.627 20.9316 50.4364 20.5283 50.4364 19.9416V7.18164L52.3504 6.08164V21.0416ZM59.0164 2.23164L57.1024 3.33164L56.1564 2.78164L58.0704 1.68164L59.0164 2.23164ZM57.1024 3.33164V18.2916L56.1564 17.7416V2.78164L57.1024 3.33164ZM57.1024 18.2916L52.3504 21.0416L51.4044 20.4916L56.1564 17.7416L57.1024 18.2916ZM52.3504 21.0416C52.3504 21.6283 52.541 22.0316 52.9224 22.2516L51.9764 21.7016C51.595 21.4816 51.4044 21.0783 51.4044 20.4916L52.3504 21.0416ZM52.3504 6.08164L50.4364 7.18164L49.4904 6.63164L51.4044 5.53164L52.3504 6.08164ZM50.4364 7.18164V19.9416C50.4364 20.5283 50.627 20.9316 51.0084 21.1516L50.0624 20.6016C49.681 20.3816 49.4904 19.9783 49.4904 19.3916V6.63164L50.4364 7.18164Z" fill="#09B400"/></g>
</svg>
